<?xml version="1.0" encoding="UTF-8" standalone="no"?>
<!DOCTYPE svg PUBLIC "-//W3C//DTD SVG 1.1//EN" "http://www.w3.org/Graphics/SVG/1.1/DTD/svg11.dtd">
<svg width="100%" height="100%" viewBox="0 0 2500 2500" version="1.1" xmlns="http://www.w3.org/2000/svg" xmlns:xlink="http://www.w3.org/1999/xlink" xml:space="preserve" xmlns:serif="http://www.serif.com/" style="fill-rule:evenodd;clip-rule:evenodd;stroke-linejoin:round;stroke-miterlimit:2;">
    <g transform="matrix(1,0,0,1,0.000438132,885.827)">
        <path d="M1512.27,1082.66C1535.19,976.93 1618.59,924.32 1699.58,919.102C1731.37,917.051 1762.63,922.488 1789.81,934.52C1851.38,961.77 1892.17,1023.97 1866.71,1119.94C1858.3,1151.92 1843.06,1182 1824.08,1210.04C1796.11,1251.35 1759.97,1288.17 1725.75,1320.01C1665.06,1376.45 1597.67,1423.75 1526.35,1459.71C1522.46,1461.67 1518.56,1463.6 1514.64,1465.49C1581.57,1498.87 1658.46,1515.88 1739.07,1520.72C1987.88,1535.65 2275.17,1431.52 2437.31,1313.11C2443.16,1308.93 2451.24,1310.38 2455.34,1316.36C2459.43,1322.33 2458.01,1330.57 2452.16,1334.75C2284.98,1451.81 1991.03,1551.78 1738.32,1532.05C1654.63,1525.52 1575.81,1505.54 1507.24,1469.04C1464.05,1489.44 1419.59,1505.82 1374.39,1517.26C1341.26,1525.65 1307.72,1531.27 1274.16,1534.38C1174.28,1543.65 1073.86,1529.97 979.516,1489.19C925.465,1515.63 866.691,1536.36 805.695,1551.34C760.805,1562.35 714.852,1570.96 668.52,1575.92C413.387,1603.21 150.375,1527.81 43.898,1334.31C40.484,1327.91 42.805,1319.88 49.078,1316.4C55.348,1312.91 63.215,1315.28 66.629,1321.68C165.016,1512.08 419.855,1589.43 667.813,1568.25C713.922,1564.32 759.902,1557.25 804.418,1545.98C862.395,1531.32 918.082,1510.73 969.188,1484.61C912.074,1458.6 857.277,1422.49 806.309,1375.36C769.426,1341.22 731.344,1301.07 702.344,1256.14C682.688,1225.7 667.18,1193.08 658.965,1158.67C646.121,1105.33 660.156,1045.28 691.406,1007.23C705.535,990.02 723.172,977.391 743.395,971.531C769.68,963.898 800.523,967.66 834.254,989.32C850.422,999.691 863.102,1012.17 873.922,1025.85C895.551,1053.2 909.387,1085.64 928.422,1116.04C928.457,1110.91 928.598,1105.93 929.262,1102.76C931.605,1091.6 934.586,1080.64 938.496,1070.05C942.48,1059.26 947.469,1048.89 953.734,1039.08C982.238,994.441 1030.6,969.891 1081.02,965.691C1131.59,961.48 1184.06,978.051 1220.95,1014.68C1225.55,1019.26 1230.15,1024.84 1234.39,1030.67C1238.56,1036.41 1242.34,1042.43 1245.41,1047.96C1257.33,1070.52 1262.92,1094.98 1263.7,1119.92C1264.81,1155.89 1256.05,1192.79 1243.36,1225.63C1201.27,1334.02 1113.64,1417.93 1003.58,1476.87C1090.26,1509.2 1181.35,1518.73 1271.73,1509.07C1304.05,1505.61 1336.23,1499.56 1368.2,1491.61C1406.34,1482.13 1444.1,1469.54 1481.07,1453.99C1458.42,1439.95 1437.08,1423.9 1417.25,1405.73C1381.35,1372.83 1349.93,1333.32 1325.34,1285.16C1305.74,1247.26 1290.31,1201.94 1283.14,1155.62C1275.84,1108.53 1277.23,1060.46 1291.06,1017.96C1297.91,996.949 1309.68,975.16 1325.87,958.82C1337.32,947.27 1351.03,938.531 1366.75,934.27C1409.4,922.73 1442.91,941.25 1467.74,975.039C1473.01,982.211 1477.73,990.172 1482.14,998.59C1495.29,1023.7 1505.08,1053.42 1512.27,1082.66ZM992.008,1472.41C1099.87,1412.09 1184.63,1325.93 1223.07,1217.77C1232.09,1192.49 1238.6,1164.73 1239.51,1137.17C1240.39,1110.63 1235.97,1084.26 1222.88,1060.67C1220.39,1055.94 1217.29,1050.79 1213.86,1045.87C1210.55,1041.09 1206.96,1036.5 1203.33,1032.73C1172,1000.11 1126.56,985.16 1082.49,987.66C1037.9,990.191 994.555,1010.41 968.316,1049.08C962.496,1057.66 957.82,1066.78 954.012,1076.28C950.121,1085.98 947.098,1096.07 944.645,1106.35C943.355,1111.77 943.773,1123.05 943.27,1130.2C942.945,1134.75 942.051,1138.21 941.098,1139.8C939.211,1142.96 936.629,1144.1 934.043,1144.12C932.152,1144.14 928.887,1143.62 926.035,1139.38C902.578,1104.46 889.211,1065.4 864.918,1033.09C855.137,1020.08 843.523,1008.21 828.656,998.211C798.105,977.711 769.852,973.07 745.699,979.91C727.121,985.172 711.105,997.16 698.328,1013.08C669.355,1049.18 657.086,1105.91 669.883,1155.85C678.375,1188.74 693.879,1219.75 713.281,1248.63C742.406,1291.97 780.352,1330.46 816.98,1363.11C871.762,1411.99 930.715,1447.99 992.008,1472.41ZM1488.03,1451.04C1568.7,1416.24 1645.47,1367.43 1713.94,1306.47C1748.04,1276.22 1784.17,1241.21 1812.38,1201.58C1831.12,1175.26 1846.38,1146.93 1855.12,1116.61C1880.6,1027.44 1844.17,967.422 1786.66,941.961C1760.72,930.48 1730.58,926.262 1700.3,928.961C1614.49,936.602 1526.71,1001.64 1524.74,1129.52C1524.62,1137.05 1524.84,1144.57 1525.27,1152.09C1527.32,1167.33 1528.63,1180.78 1529.36,1191.28C1535.06,1274.88 1516.23,1252.18 1509.21,1193.92C1508.99,1192.09 1508.51,1187.28 1508.11,1183C1503.16,1140.25 1489.42,1064.28 1459.95,1011.04C1455.95,1003.81 1451.57,997.07 1447.02,990.789C1428.42,965.121 1404.63,948.859 1372.12,956.461C1356.88,960.031 1344.02,969.359 1333.64,981.262C1322.61,993.898 1314.25,1009.32 1308.8,1024.33C1294.44,1063.86 1291.91,1109.05 1297.25,1153.61C1302.67,1198.79 1316.11,1243.31 1333.84,1280.78C1356.79,1328.65 1386.03,1368.91 1421.1,1401.37C1441.69,1420.43 1464.11,1436.92 1488.03,1451.04"/>
    </g>
</svg>
